<?xml version="1.0" encoding="UTF-8" standalone="no"?>
<!DOCTYPE svg PUBLIC "-//W3C//DTD SVG 1.1//EN"
 "http://www.w3.org/Graphics/SVG/1.1/DTD/svg11.dtd">
<!-- Generated by graphviz version 2.40.1 (20161225.0304)
 -->
<!-- Title: dependencies Pages: 1 -->
<svg width="586pt" height="211pt"
 viewBox="0.00 0.00 586.00 211.00" xmlns="http://www.w3.org/2000/svg" xmlns:xlink="http://www.w3.org/1999/xlink">
<g id="graph0" class="graph" transform="scale(1 1) rotate(0) translate(4 207)">
<title>dependencies</title>
<polygon fill="#ffffff" stroke="transparent" points="-4,4 -4,-207 582,-207 582,4 -4,4"/>
<text text-anchor="start" x="268.0091" y="-42.4" font-family="sans-serif" font-weight="bold" font-size="14.00" fill="#000000">Legend</text>
<polygon fill="#ffffb3" stroke="transparent" points="55,-10 55,-30 75,-30 75,-10 55,-10"/>
<text text-anchor="start" x="78.629" y="-15.4" font-family="sans-serif" font-size="14.00" fill="#000000"> &#160;Declarations</text>
<polygon fill="#8dd3c7" stroke="transparent" points="168,-10 168,-30 188,-30 188,-10 168,-10"/>
<text text-anchor="start" x="191.7251" y="-15.4" font-family="sans-serif" font-size="14.00" fill="#000000"> &#160;Module</text>
<polygon fill="#80b1d3" stroke="transparent" points="254,-10 254,-30 274,-30 274,-10 254,-10"/>
<text text-anchor="start" x="277.7812" y="-15.4" font-family="sans-serif" font-size="14.00" fill="#000000"> &#160;Bootstrap</text>
<polygon fill="#fdb462" stroke="transparent" points="351,-10 351,-30 371,-30 371,-10 351,-10"/>
<text text-anchor="start" x="374.6732" y="-15.4" font-family="sans-serif" font-size="14.00" fill="#000000"> &#160;Providers</text>
<polygon fill="#fb8072" stroke="transparent" points="447,-10 447,-30 467,-30 467,-10 447,-10"/>
<text text-anchor="start" x="470.7258" y="-15.4" font-family="sans-serif" font-size="14.00" fill="#000000"> &#160;Exports</text>
<g id="clust1" class="cluster">
<title>cluster_CustomerModule</title>
<polygon fill="none" stroke="#000000" stroke-dasharray="1,5" points="8,-70 8,-195 570,-195 570,-70 8,-70"/>
</g>
<g id="clust2" class="cluster">
<title>cluster_CustomerModule_declarations</title>
<polygon fill="none" stroke="#000000" points="200,-78 200,-130 562,-130 562,-78 200,-78"/>
</g>
<g id="clust5" class="cluster">
<title>cluster_CustomerModule_imports</title>
<polygon fill="none" stroke="#000000" points="16,-78 16,-130 192,-130 192,-78 16,-78"/>
</g>
<!-- CustomerListComponent -->
<g id="node1" class="node">
<title>CustomerListComponent</title>
<polygon fill="#ffffb3" stroke="#000000" points="553.549,-122 396.451,-122 396.451,-86 553.549,-86 553.549,-122"/>
<text text-anchor="middle" x="475" y="-99.8" font-family="Times,serif" font-size="14.00" fill="#000000">CustomerListComponent</text>
</g>
<!-- CustomerModule -->
<g id="node3" class="node">
<title>CustomerModule</title>
<polygon fill="#8dd3c7" stroke="#000000" points="349.9874,-187 346.9874,-191 325.9874,-191 322.9874,-187 236.0126,-187 236.0126,-151 349.9874,-151 349.9874,-187"/>
<text text-anchor="middle" x="293" y="-164.8" font-family="Times,serif" font-size="14.00" fill="#000000">CustomerModule</text>
</g>
<!-- CustomerListComponent&#45;&gt;CustomerModule -->
<g id="edge1" class="edge">
<title>CustomerListComponent&#45;&gt;CustomerModule</title>
<path fill="none" stroke="#000000" d="M475,-122.1061C475,-141.3391 475,-169 475,-169 475,-169 360.0866,-169 360.0866,-169"/>
<polygon fill="#000000" stroke="#000000" points="360.0866,-165.5001 350.0866,-169 360.0865,-172.5001 360.0866,-165.5001"/>
</g>
<!-- CustomerDetailComponent -->
<g id="node2" class="node">
<title>CustomerDetailComponent</title>
<polygon fill="#ffffb3" stroke="#000000" points="377.9776,-122 208.0224,-122 208.0224,-86 377.9776,-86 377.9776,-122"/>
<text text-anchor="middle" x="293" y="-99.8" font-family="Times,serif" font-size="14.00" fill="#000000">CustomerDetailComponent</text>
</g>
<!-- CustomerDetailComponent&#45;&gt;CustomerModule -->
<g id="edge2" class="edge">
<title>CustomerDetailComponent&#45;&gt;CustomerModule</title>
<path fill="none" stroke="#000000" d="M293,-122.1061C293,-122.1061 293,-140.991 293,-140.991"/>
<polygon fill="#000000" stroke="#000000" points="289.5001,-140.9909 293,-150.991 296.5001,-140.991 289.5001,-140.9909"/>
</g>
<!-- CustomerRoutingModule -->
<g id="node4" class="node">
<title>CustomerRoutingModule</title>
<polygon fill="#8dd3c7" stroke="#000000" points="183.6052,-122 180.6052,-126 159.6052,-126 156.6052,-122 24.3948,-122 24.3948,-86 183.6052,-86 183.6052,-122"/>
<text text-anchor="middle" x="104" y="-99.8" font-family="Times,serif" font-size="14.00" fill="#000000">CustomerRoutingModule</text>
</g>
<!-- CustomerRoutingModule&#45;&gt;CustomerModule -->
<g id="edge3" class="edge">
<title>CustomerRoutingModule&#45;&gt;CustomerModule</title>
<path fill="none" stroke="#000000" d="M104,-122.1061C104,-141.3391 104,-169 104,-169 104,-169 225.7809,-169 225.7809,-169"/>
<polygon fill="#000000" stroke="#000000" points="225.7809,-172.5001 235.7809,-169 225.7808,-165.5001 225.7809,-172.5001"/>
</g>
</g>
</svg>
