<?xml version="1.0" encoding="UTF-8" standalone="no"?>
<!DOCTYPE svg PUBLIC "-//W3C//DTD SVG 1.1//EN"
 "http://www.w3.org/Graphics/SVG/1.1/DTD/svg11.dtd">
<!-- Generated by graphviz version 2.40.1 (20161225.0304)
 -->
<!-- Title: dependencies Pages: 1 -->
<svg width="770pt" height="284pt"
 viewBox="0.00 0.00 770.00 284.00" xmlns="http://www.w3.org/2000/svg" xmlns:xlink="http://www.w3.org/1999/xlink">
<g id="graph0" class="graph" transform="scale(1 1) rotate(0) translate(4 280)">
<title>dependencies</title>
<polygon fill="#ffffff" stroke="transparent" points="-4,4 -4,-280 766,-280 766,4 -4,4"/>
<text text-anchor="start" x="360.0091" y="-42.4" font-family="sans-serif" font-weight="bold" font-size="14.00" fill="#000000">Legend</text>
<polygon fill="#ffffb3" stroke="transparent" points="147,-10 147,-30 167,-30 167,-10 147,-10"/>
<text text-anchor="start" x="170.629" y="-15.4" font-family="sans-serif" font-size="14.00" fill="#000000"> &#160;Declarations</text>
<polygon fill="#8dd3c7" stroke="transparent" points="260,-10 260,-30 280,-30 280,-10 260,-10"/>
<text text-anchor="start" x="283.7251" y="-15.4" font-family="sans-serif" font-size="14.00" fill="#000000"> &#160;Module</text>
<polygon fill="#80b1d3" stroke="transparent" points="346,-10 346,-30 366,-30 366,-10 346,-10"/>
<text text-anchor="start" x="369.7812" y="-15.4" font-family="sans-serif" font-size="14.00" fill="#000000"> &#160;Bootstrap</text>
<polygon fill="#fdb462" stroke="transparent" points="443,-10 443,-30 463,-30 463,-10 443,-10"/>
<text text-anchor="start" x="466.6732" y="-15.4" font-family="sans-serif" font-size="14.00" fill="#000000"> &#160;Providers</text>
<polygon fill="#fb8072" stroke="transparent" points="539,-10 539,-30 559,-30 559,-10 539,-10"/>
<text text-anchor="start" x="562.7258" y="-15.4" font-family="sans-serif" font-size="14.00" fill="#000000"> &#160;Exports</text>
<g id="clust1" class="cluster">
<title>cluster_AppModule</title>
<polygon fill="none" stroke="#000000" stroke-dasharray="1,5" points="8,-70 8,-268 754,-268 754,-70 8,-70"/>
</g>
<g id="clust2" class="cluster">
<title>cluster_AppModule_declarations</title>
<polygon fill="none" stroke="#000000" points="480,-78 480,-130 746,-130 746,-78 480,-78"/>
</g>
<g id="clust5" class="cluster">
<title>cluster_AppModule_imports</title>
<polygon fill="none" stroke="#000000" points="196,-78 196,-130 472,-130 472,-78 196,-78"/>
</g>
<g id="clust7" class="cluster">
<title>cluster_AppModule_bootstrap</title>
<polygon fill="none" stroke="#000000" points="342,-208 342,-260 472,-260 472,-208 342,-208"/>
</g>
<g id="clust8" class="cluster">
<title>cluster_AppModule_providers</title>
<polygon fill="none" stroke="#000000" points="16,-78 16,-130 188,-130 188,-78 16,-78"/>
</g>
<!-- HeaderComponent -->
<g id="node1" class="node">
<title>HeaderComponent</title>
<polygon fill="#ffffb3" stroke="#000000" points="737.7437,-122 616.2563,-122 616.2563,-86 737.7437,-86 737.7437,-122"/>
<text text-anchor="middle" x="677" y="-99.8" font-family="Times,serif" font-size="14.00" fill="#000000">HeaderComponent</text>
</g>
<!-- AppModule -->
<g id="node3" class="node">
<title>AppModule</title>
<polygon fill="#8dd3c7" stroke="#000000" points="448.6571,-187 445.6571,-191 424.6571,-191 421.6571,-187 365.3429,-187 365.3429,-151 448.6571,-151 448.6571,-187"/>
<text text-anchor="middle" x="407" y="-164.8" font-family="Times,serif" font-size="14.00" fill="#000000">AppModule</text>
</g>
<!-- HeaderComponent&#45;&gt;AppModule -->
<g id="edge1" class="edge">
<title>HeaderComponent&#45;&gt;AppModule</title>
<path fill="none" stroke="#000000" d="M677,-122.2843C677,-143.3211 677,-175 677,-175 677,-175 458.8913,-175 458.8913,-175"/>
<polygon fill="#000000" stroke="#000000" points="458.8913,-171.5001 448.8913,-175 458.8912,-178.5001 458.8913,-171.5001"/>
</g>
<!-- MainComponent -->
<g id="node2" class="node">
<title>MainComponent</title>
<polygon fill="#ffffb3" stroke="#000000" points="598.3823,-122 487.6177,-122 487.6177,-86 598.3823,-86 598.3823,-122"/>
<text text-anchor="middle" x="543" y="-99.8" font-family="Times,serif" font-size="14.00" fill="#000000">MainComponent</text>
</g>
<!-- MainComponent&#45;&gt;AppModule -->
<g id="edge2" class="edge">
<title>MainComponent&#45;&gt;AppModule</title>
<path fill="none" stroke="#000000" d="M543,-122.0225C543,-139.3734 543,-163 543,-163 543,-163 458.9142,-163 458.9142,-163"/>
<polygon fill="#000000" stroke="#000000" points="458.9142,-159.5001 448.9142,-163 458.9142,-166.5001 458.9142,-159.5001"/>
</g>
<!-- MainComponent  -->
<g id="node6" class="node">
<title>MainComponent </title>
<polygon fill="#80b1d3" stroke="#000000" points="464.3828,-252 349.6172,-252 349.6172,-216 464.3828,-216 464.3828,-252"/>
<text text-anchor="middle" x="407" y="-229.8" font-family="Times,serif" font-size="14.00" fill="#000000">MainComponent </text>
</g>
<!-- AppModule&#45;&gt;MainComponent  -->
<g id="edge5" class="edge">
<title>AppModule&#45;&gt;MainComponent </title>
<path fill="none" stroke="#000000" stroke-dasharray="1,5" d="M407,-187.1061C407,-187.1061 407,-205.991 407,-205.991"/>
<polygon fill="#000000" stroke="#000000" points="403.5001,-205.9909 407,-215.991 410.5001,-205.991 403.5001,-205.9909"/>
</g>
<!-- CustomerModule -->
<g id="node4" class="node">
<title>CustomerModule</title>
<polygon fill="#8dd3c7" stroke="#000000" points="463.9874,-122 460.9874,-126 439.9874,-126 436.9874,-122 350.0126,-122 350.0126,-86 463.9874,-86 463.9874,-122"/>
<text text-anchor="middle" x="407" y="-99.8" font-family="Times,serif" font-size="14.00" fill="#000000">CustomerModule</text>
</g>
<!-- CustomerModule&#45;&gt;AppModule -->
<g id="edge3" class="edge">
<title>CustomerModule&#45;&gt;AppModule</title>
<path fill="none" stroke="#000000" d="M407,-122.1061C407,-122.1061 407,-140.991 407,-140.991"/>
<polygon fill="#000000" stroke="#000000" points="403.5001,-140.9909 407,-150.991 410.5001,-140.991 403.5001,-140.9909"/>
</g>
<!-- AppRoutingModule -->
<g id="node5" class="node">
<title>AppRoutingModule</title>
<polygon fill="#8dd3c7" stroke="#000000" points="332.2744,-122 329.2744,-126 308.2744,-126 305.2744,-122 203.7256,-122 203.7256,-86 332.2744,-86 332.2744,-122"/>
<text text-anchor="middle" x="268" y="-99.8" font-family="Times,serif" font-size="14.00" fill="#000000">AppRoutingModule</text>
</g>
<!-- AppRoutingModule&#45;&gt;AppModule -->
<g id="edge4" class="edge">
<title>AppRoutingModule&#45;&gt;AppModule</title>
<path fill="none" stroke="#000000" d="M268,-122.0225C268,-139.3734 268,-163 268,-163 268,-163 355.2954,-163 355.2954,-163"/>
<polygon fill="#000000" stroke="#000000" points="355.2955,-166.5001 365.2954,-163 355.2954,-159.5001 355.2955,-166.5001"/>
</g>
<!-- CustomerService -->
<g id="node7" class="node">
<title>CustomerService</title>
<ellipse fill="#fdb462" stroke="#000000" cx="102" cy="-104" rx="77.5839" ry="18"/>
<text text-anchor="middle" x="102" y="-99.8" font-family="Times,serif" font-size="14.00" fill="#000000">CustomerService</text>
</g>
<!-- CustomerService&#45;&gt;AppModule -->
<g id="edge6" class="edge">
<title>CustomerService&#45;&gt;AppModule</title>
<path fill="none" stroke="#000000" d="M102,-122.2843C102,-143.3211 102,-175 102,-175 102,-175 355.2306,-175 355.2306,-175"/>
<polygon fill="#000000" stroke="#000000" points="355.2306,-178.5001 365.2306,-175 355.2305,-171.5001 355.2306,-178.5001"/>
</g>
</g>
</svg>
