<?xml version="1.0" encoding="UTF-8" standalone="no"?>
<!DOCTYPE svg PUBLIC "-//W3C//DTD SVG 1.1//EN"
 "http://www.w3.org/Graphics/SVG/1.1/DTD/svg11.dtd">
<!-- Generated by graphviz version 2.40.1 (20161225.0304)
 -->
<!-- Title: dependencies Pages: 1 -->
<svg width="770pt" height="360pt"
 viewBox="0.00 0.00 770.00 360.00" xmlns="http://www.w3.org/2000/svg" xmlns:xlink="http://www.w3.org/1999/xlink">
<g id="graph0" class="graph" transform="scale(1 1) rotate(0) translate(4 356)">
<title>dependencies</title>
<polygon fill="#ffffff" stroke="transparent" points="-4,4 -4,-356 766,-356 766,4 -4,4"/>
<text text-anchor="start" x="360.0091" y="-42.4" font-family="sans-serif" font-weight="bold" font-size="14.00" fill="#000000">Legend</text>
<polygon fill="#ffffb3" stroke="transparent" points="147,-10 147,-30 167,-30 167,-10 147,-10"/>
<text text-anchor="start" x="170.629" y="-15.4" font-family="sans-serif" font-size="14.00" fill="#000000"> &#160;Declarations</text>
<polygon fill="#8dd3c7" stroke="transparent" points="260,-10 260,-30 280,-30 280,-10 260,-10"/>
<text text-anchor="start" x="283.7251" y="-15.4" font-family="sans-serif" font-size="14.00" fill="#000000"> &#160;Module</text>
<polygon fill="#80b1d3" stroke="transparent" points="346,-10 346,-30 366,-30 366,-10 346,-10"/>
<text text-anchor="start" x="369.7812" y="-15.4" font-family="sans-serif" font-size="14.00" fill="#000000"> &#160;Bootstrap</text>
<polygon fill="#fdb462" stroke="transparent" points="443,-10 443,-30 463,-30 463,-10 443,-10"/>
<text text-anchor="start" x="466.6732" y="-15.4" font-family="sans-serif" font-size="14.00" fill="#000000"> &#160;Providers</text>
<polygon fill="#fb8072" stroke="transparent" points="539,-10 539,-30 559,-30 559,-10 539,-10"/>
<text text-anchor="start" x="562.7258" y="-15.4" font-family="sans-serif" font-size="14.00" fill="#000000"> &#160;Exports</text>
<g id="clust1" class="cluster">
<title>cluster_AppModule</title>
<polygon fill="none" stroke="#000000" stroke-dasharray="1,5" points="8,-146 8,-344 754,-344 754,-146 8,-146"/>
</g>
<g id="clust2" class="cluster">
<title>cluster_AppModule_declarations</title>
<polygon fill="none" stroke="#000000" points="480,-154 480,-206 746,-206 746,-154 480,-154"/>
</g>
<g id="clust5" class="cluster">
<title>cluster_AppModule_imports</title>
<polygon fill="none" stroke="#000000" points="196,-154 196,-206 472,-206 472,-154 196,-154"/>
</g>
<g id="clust7" class="cluster">
<title>cluster_AppModule_bootstrap</title>
<polygon fill="none" stroke="#000000" points="342,-284 342,-336 472,-336 472,-284 342,-284"/>
</g>
<g id="clust8" class="cluster">
<title>cluster_AppModule_providers</title>
<polygon fill="none" stroke="#000000" points="16,-154 16,-206 188,-206 188,-154 16,-154"/>
</g>
<g id="clust15" class="cluster">
<title>cluster_CustomerModule</title>
<polygon fill="none" stroke="#000000" stroke-dasharray="1,5" points="122,-70 122,-138 684,-138 684,-70 122,-70"/>
</g>
<g id="clust16" class="cluster">
<title>cluster_CustomerModule_declarations</title>
<polygon fill="none" stroke="#000000" points="314,-78 314,-130 676,-130 676,-78 314,-78"/>
</g>
<g id="clust19" class="cluster">
<title>cluster_CustomerModule_imports</title>
<polygon fill="none" stroke="#000000" points="130,-78 130,-130 306,-130 306,-78 130,-78"/>
</g>
<!-- HeaderComponent -->
<g id="node1" class="node">
<title>HeaderComponent</title>
<polygon fill="#ffffb3" stroke="#000000" points="737.7437,-198 616.2563,-198 616.2563,-162 737.7437,-162 737.7437,-198"/>
<text text-anchor="middle" x="677" y="-175.8" font-family="Times,serif" font-size="14.00" fill="#000000">HeaderComponent</text>
</g>
<!-- AppModule -->
<g id="node3" class="node">
<title>AppModule</title>
<polygon fill="#8dd3c7" stroke="#000000" points="448.6571,-263 445.6571,-267 424.6571,-267 421.6571,-263 365.3429,-263 365.3429,-227 448.6571,-227 448.6571,-263"/>
<text text-anchor="middle" x="407" y="-240.8" font-family="Times,serif" font-size="14.00" fill="#000000">AppModule</text>
</g>
<!-- HeaderComponent&#45;&gt;AppModule -->
<g id="edge1" class="edge">
<title>HeaderComponent&#45;&gt;AppModule</title>
<path fill="none" stroke="#000000" d="M677,-198.2843C677,-219.3211 677,-251 677,-251 677,-251 458.8913,-251 458.8913,-251"/>
<polygon fill="#000000" stroke="#000000" points="458.8913,-247.5001 448.8913,-251 458.8912,-254.5001 458.8913,-247.5001"/>
</g>
<!-- MainComponent -->
<g id="node2" class="node">
<title>MainComponent</title>
<polygon fill="#ffffb3" stroke="#000000" points="598.3823,-198 487.6177,-198 487.6177,-162 598.3823,-162 598.3823,-198"/>
<text text-anchor="middle" x="543" y="-175.8" font-family="Times,serif" font-size="14.00" fill="#000000">MainComponent</text>
</g>
<!-- MainComponent&#45;&gt;AppModule -->
<g id="edge2" class="edge">
<title>MainComponent&#45;&gt;AppModule</title>
<path fill="none" stroke="#000000" d="M543,-198.0225C543,-215.3734 543,-239 543,-239 543,-239 458.9142,-239 458.9142,-239"/>
<polygon fill="#000000" stroke="#000000" points="458.9142,-235.5001 448.9142,-239 458.9142,-242.5001 458.9142,-235.5001"/>
</g>
<!-- MainComponent  -->
<g id="node6" class="node">
<title>MainComponent </title>
<polygon fill="#80b1d3" stroke="#000000" points="464.3828,-328 349.6172,-328 349.6172,-292 464.3828,-292 464.3828,-328"/>
<text text-anchor="middle" x="407" y="-305.8" font-family="Times,serif" font-size="14.00" fill="#000000">MainComponent </text>
</g>
<!-- AppModule&#45;&gt;MainComponent  -->
<g id="edge5" class="edge">
<title>AppModule&#45;&gt;MainComponent </title>
<path fill="none" stroke="#000000" stroke-dasharray="1,5" d="M407,-263.1061C407,-263.1061 407,-281.991 407,-281.991"/>
<polygon fill="#000000" stroke="#000000" points="403.5001,-281.9909 407,-291.991 410.5001,-281.991 403.5001,-281.9909"/>
</g>
<!-- CustomerModule -->
<g id="node4" class="node">
<title>CustomerModule</title>
<polygon fill="#8dd3c7" stroke="#000000" points="463.9874,-198 460.9874,-202 439.9874,-202 436.9874,-198 350.0126,-198 350.0126,-162 463.9874,-162 463.9874,-198"/>
<text text-anchor="middle" x="407" y="-175.8" font-family="Times,serif" font-size="14.00" fill="#000000">CustomerModule</text>
</g>
<!-- CustomerModule&#45;&gt;AppModule -->
<g id="edge3" class="edge">
<title>CustomerModule&#45;&gt;AppModule</title>
<path fill="none" stroke="#000000" d="M407,-198.1061C407,-198.1061 407,-216.991 407,-216.991"/>
<polygon fill="#000000" stroke="#000000" points="403.5001,-216.9909 407,-226.991 410.5001,-216.991 403.5001,-216.9909"/>
</g>
<!-- AppRoutingModule -->
<g id="node5" class="node">
<title>AppRoutingModule</title>
<polygon fill="#8dd3c7" stroke="#000000" points="332.2744,-198 329.2744,-202 308.2744,-202 305.2744,-198 203.7256,-198 203.7256,-162 332.2744,-162 332.2744,-198"/>
<text text-anchor="middle" x="268" y="-175.8" font-family="Times,serif" font-size="14.00" fill="#000000">AppRoutingModule</text>
</g>
<!-- AppRoutingModule&#45;&gt;AppModule -->
<g id="edge4" class="edge">
<title>AppRoutingModule&#45;&gt;AppModule</title>
<path fill="none" stroke="#000000" d="M268,-198.0225C268,-215.3734 268,-239 268,-239 268,-239 355.2954,-239 355.2954,-239"/>
<polygon fill="#000000" stroke="#000000" points="355.2955,-242.5001 365.2954,-239 355.2954,-235.5001 355.2955,-242.5001"/>
</g>
<!-- CustomerService -->
<g id="node7" class="node">
<title>CustomerService</title>
<ellipse fill="#fdb462" stroke="#000000" cx="102" cy="-180" rx="77.5839" ry="18"/>
<text text-anchor="middle" x="102" y="-175.8" font-family="Times,serif" font-size="14.00" fill="#000000">CustomerService</text>
</g>
<!-- CustomerService&#45;&gt;AppModule -->
<g id="edge6" class="edge">
<title>CustomerService&#45;&gt;AppModule</title>
<path fill="none" stroke="#000000" d="M102,-198.2843C102,-219.3211 102,-251 102,-251 102,-251 355.2306,-251 355.2306,-251"/>
<polygon fill="#000000" stroke="#000000" points="355.2306,-254.5001 365.2306,-251 355.2305,-247.5001 355.2306,-254.5001"/>
</g>
<!-- CustomerListComponent -->
<g id="node8" class="node">
<title>CustomerListComponent</title>
<polygon fill="#ffffb3" stroke="#000000" points="667.549,-122 510.451,-122 510.451,-86 667.549,-86 667.549,-122"/>
<text text-anchor="middle" x="589" y="-99.8" font-family="Times,serif" font-size="14.00" fill="#000000">CustomerListComponent</text>
</g>
<!-- CustomerListComponent&#45;&gt;CustomerModule -->
<g id="edge7" class="edge">
<title>CustomerListComponent&#45;&gt;CustomerModule</title>
<path fill="none" stroke="#000000" d="M554.3335,-122.0439C554.3335,-134.5633 554.3335,-149 554.3335,-149 554.3335,-149 435.4969,-149 435.4969,-149 435.4969,-149 435.4969,-151.9672 435.4969,-151.9672"/>
<polygon fill="#000000" stroke="#000000" points="431.9969,-151.9671 435.4969,-161.9672 438.9969,-151.9672 431.9969,-151.9671"/>
</g>
<!-- CustomerDetailComponent -->
<g id="node9" class="node">
<title>CustomerDetailComponent</title>
<polygon fill="#ffffb3" stroke="#000000" points="491.9776,-122 322.0224,-122 322.0224,-86 491.9776,-86 491.9776,-122"/>
<text text-anchor="middle" x="407" y="-99.8" font-family="Times,serif" font-size="14.00" fill="#000000">CustomerDetailComponent</text>
</g>
<!-- CustomerDetailComponent&#45;&gt;CustomerModule -->
<g id="edge8" class="edge">
<title>CustomerDetailComponent&#45;&gt;CustomerModule</title>
<path fill="none" stroke="#000000" d="M407,-122.0109C407,-122.0109 407,-151.855 407,-151.855"/>
<polygon fill="#000000" stroke="#000000" points="403.5001,-151.8549 407,-161.855 410.5001,-151.855 403.5001,-151.8549"/>
</g>
<!-- CustomerRoutingModule -->
<g id="node10" class="node">
<title>CustomerRoutingModule</title>
<polygon fill="#8dd3c7" stroke="#000000" points="297.6052,-122 294.6052,-126 273.6052,-126 270.6052,-122 138.3948,-122 138.3948,-86 297.6052,-86 297.6052,-122"/>
<text text-anchor="middle" x="218" y="-99.8" font-family="Times,serif" font-size="14.00" fill="#000000">CustomerRoutingModule</text>
</g>
<!-- CustomerRoutingModule&#45;&gt;CustomerModule -->
<g id="edge9" class="edge">
<title>CustomerRoutingModule&#45;&gt;CustomerModule</title>
<path fill="none" stroke="#000000" d="M250.5828,-122.2434C250.5828,-129.4297 250.5828,-136 250.5828,-136 250.5828,-136 378.5032,-136 378.5032,-136 378.5032,-136 378.5032,-151.8495 378.5032,-151.8495"/>
<polygon fill="#000000" stroke="#000000" points="375.0032,-151.8494 378.5032,-161.8495 382.0032,-151.8495 375.0032,-151.8494"/>
</g>
</g>
</svg>
